<svg width="48" height="48" viewBox="0 0 48 48" fill="none" xmlns="http://www.w3.org/2000/svg">
<path fill-rule="evenodd" clip-rule="evenodd" d="M16.5255 12.0001C17.508 11.9819 18.4892 12.0826 19.4475 12.3001C20.2544 12.4763 21.0205 12.8041 21.705 13.2661C22.3372 13.7256 22.8375 14.3433 23.1555 15.0571C23.521 15.935 23.6973 16.8801 23.673 17.8306C23.7145 18.8744 23.4479 19.9073 22.9065 20.8006C22.3369 21.6444 21.5496 22.3182 20.628 22.7506C21.8786 23.0878 22.9679 23.8601 23.7 24.9286C24.4028 26.0608 24.756 27.3752 24.7155 28.7071C24.7387 29.7691 24.5191 30.8224 24.0735 31.7866C23.6616 32.6278 23.0585 33.3609 22.3125 33.9271C21.5444 34.4872 20.6801 34.9016 19.7625 35.1496C18.8109 35.4129 17.8278 35.5451 16.8405 35.5426H6V12.0001H16.5255ZM15.9 21.5221C16.672 21.554 17.4319 21.3229 18.0555 20.8666C18.3541 20.6008 18.5865 20.2688 18.7339 19.8971C18.8813 19.5254 18.9397 19.1244 18.9045 18.7261C18.9245 18.261 18.8319 17.7979 18.6345 17.3761C18.4671 17.0404 18.2068 16.7598 17.8845 16.5676C17.5581 16.3562 17.1914 16.2147 16.8075 16.1521C16.391 16.0715 15.9672 16.0348 15.543 16.0426H10.911V21.5431H15.9V21.5221ZM16.17 31.5451C16.6369 31.5515 17.1028 31.5011 17.5575 31.3951C17.9731 31.3034 18.3672 31.1328 18.7185 30.8926C19.0627 30.6526 19.3408 30.3297 19.527 29.9536C19.7429 29.4742 19.8422 28.9504 19.8165 28.4251C19.8633 27.9465 19.7999 27.4635 19.6312 27.0132C19.4624 26.5629 19.1928 26.1571 18.843 25.8271C18.1016 25.281 17.1929 25.0105 16.2735 25.0621H10.911V31.5451H16.17Z" fill="#00298E"/>
<path fill-rule="evenodd" clip-rule="evenodd" d="M31.71 31.4581C32.0955 31.8154 32.5495 32.0906 33.0446 32.267C33.5397 32.4434 34.0655 32.5172 34.59 32.4841C35.4215 32.5052 36.2369 32.2522 36.9105 31.7641C37.4585 31.4078 37.8735 30.8805 38.091 30.2641H42.0075C41.5902 32.0189 40.5712 33.5719 39.1275 34.6531C37.7426 35.5724 36.1059 36.0379 34.4445 35.9851C33.2587 36.0007 32.0819 35.7778 30.984 35.3296C29.9908 34.9155 29.1001 34.2894 28.374 33.4951C27.6507 32.6629 27.095 31.6987 26.7375 30.6556C26.3363 29.4897 26.1399 28.2631 26.157 27.0301C26.1497 25.8179 26.3527 24.6135 26.757 23.4706C27.3002 21.8628 28.3387 20.4684 29.7236 19.4875C31.1085 18.5065 32.7685 17.9895 34.4655 18.0106C35.7184 17.9845 36.9573 18.2777 38.0655 18.8626C39.0673 19.4119 39.9314 20.1812 40.593 21.1126C41.2698 22.09 41.7549 23.1869 42.0225 24.3451C42.316 25.5889 42.4207 26.8697 42.333 28.1446H30.6675C30.573 29.3425 30.9467 30.5302 31.71 31.4581ZM36.828 22.5046C36.5016 22.1781 36.1089 21.9254 35.6766 21.7634C35.2442 21.6014 34.7821 21.534 34.3215 21.5656C33.7104 21.5423 33.1037 21.6777 32.5605 21.9586C32.1299 22.1957 31.7497 22.5147 31.4415 22.8976C31.1684 23.2567 30.9648 23.6637 30.8415 24.0976C30.7304 24.4596 30.6609 24.833 30.6345 25.2106H37.86C37.7971 24.2261 37.4384 23.2835 36.831 22.5061L36.828 22.5046Z" fill="#00298E"/>
<path d="M29.703 13.5721H38.757V15.8866H29.703V13.5721Z" fill="#00298E"/>
</svg>
