<svg width="48" height="48" viewBox="0 0 48 48" fill="none" xmlns="http://www.w3.org/2000/svg">
<path fill-rule="evenodd" clip-rule="evenodd" d="M39.5434 16.1773C39.5569 16.527 39.5614 16.8767 39.5614 17.2264C39.5614 27.8308 32.1018 40.073 18.4606 40.073C14.2703 40.073 10.3739 38.7375 7.09094 36.464C7.67126 36.5276 8.26062 36.5754 8.85903 36.5754C12.3334 36.5754 15.5334 35.2873 18.0717 33.1251C14.8265 33.0774 12.0862 30.7403 11.1411 27.5606C11.5948 27.656 12.062 27.7038 12.5399 27.7038C13.2136 27.7038 13.8678 27.6085 14.4948 27.4177C11.0989 26.6864 8.54099 23.4431 8.54099 19.548C8.54099 19.5003 8.54099 19.4843 8.54099 19.4525C9.54184 20.0407 10.6874 20.4062 11.9038 20.4539C9.91111 19.0071 8.60124 16.5429 8.60124 13.7606C8.60124 12.298 8.96601 10.9147 9.60813 9.72232C13.2649 14.5873 18.7319 17.783 24.8953 18.1169C24.7687 17.5286 24.7039 16.9087 24.7039 16.2887C24.7039 11.8529 28.0245 8.25977 32.1213 8.25977C34.2542 8.25977 36.1805 9.22972 37.5326 10.7878C39.2253 10.438 40.811 9.77032 42.246 8.8482C41.6898 10.7242 40.5156 12.2979 38.9811 13.2836C40.4824 13.0928 41.9144 12.6639 43.2423 12.0279C42.246 13.6337 40.9919 15.0485 39.5434 16.1773Z" fill="#00298E"/>
</svg>
